<svg xmlns="http://www.w3.org/2000/svg" version="1.1" xmlns:xlink="http://www.w3.org/1999/xlink" width="512" height="512" x="0" y="0" viewBox="0 0 32 32" style="enable-background:new 0 0 512 512" xml:space="preserve" class=""><g><g data-name="first aid kit"><path d="M18 23h-1v-1a1 1 0 0 0-2 0v1h-1a1 1 0 0 0 0 2h1v1a1 1 0 0 0 2 0v-1h1a1 1 0 0 0 0-2Z" fill="#598560" opacity="1" data-original="#000000" class=""></path><path d="M27 13a11 11 0 0 0-22 0s0 .08 0 .11a1.29 1.29 0 0 0 .83 1.06l4.57 3.92A3.34 3.34 0 0 0 8 21.34v5.32A3.35 3.35 0 0 0 11.34 30h9.32A3.35 3.35 0 0 0 24 26.66v-5.32a3.34 3.34 0 0 0-2.45-3.21l4.57-3.92a1.29 1.29 0 0 0 .88-1.06s0-.07 0-.15Zm-11.43 5-2.33-3.88A4.26 4.26 0 0 1 16 13a4 4 0 0 1 2.76 1.13L16.43 18Zm-4.49-3.62a.26.26 0 0 0 .05.09l1.95 3.25-5.2-4.45A2.16 2.16 0 0 1 9 13a2.25 2.25 0 0 1 2.08 1.38Zm9.78.13a.26.26 0 0 0 .05-.09A2.25 2.25 0 0 1 23 13a2.16 2.16 0 0 1 1.11.31l-5.2 4.45ZM16 4a9 9 0 0 1 8.86 7.43A4.2 4.2 0 0 0 23 11a4.24 4.24 0 0 0-3.16 1.41A6 6 0 0 0 16 11a6.34 6.34 0 0 0-3.85 1.4 4.24 4.24 0 0 0-5-1A9 9 0 0 1 16 4Zm6 17.34v5.32A1.34 1.34 0 0 1 20.66 28h-9.32A1.34 1.34 0 0 1 10 26.66v-5.32A1.34 1.34 0 0 1 11.34 20h9.32A1.34 1.34 0 0 1 22 21.34Z" fill="#598560" opacity="1" data-original="#000000" class=""></path></g></g></svg>