<svg xmlns="http://www.w3.org/2000/svg" version="1.1" xmlns:xlink="http://www.w3.org/1999/xlink" width="512" height="512" x="0" y="0" viewBox="0 0 64 64" style="enable-background:new 0 0 512 512" xml:space="preserve" class=""><g><path d="M62 37a8.997 8.997 0 0 0-4.012-7.486C57.728 15.954 46.622 5 33 5h-2C17.378 5 6.273 15.953 6.012 29.514A8.997 8.997 0 0 0 2 37c0 4.962 4.038 9 9 9a1 1 0 0 0 1-1V29a1 1 0 0 0-1-1 8.94 8.94 0 0 0-2.946.505C8.827 16.518 18.82 7 31 7h2c12.18 0 22.173 9.518 22.946 21.505A8.94 8.94 0 0 0 53 28a1 1 0 0 0-1 1v16a1 1 0 0 0 1 1 8.945 8.945 0 0 0 2.894-.486C55.146 51.417 50.103 56 44 56h-3v-1a1 1 0 0 0-1-1h-9a1 1 0 0 0-1 1v4a1 1 0 0 0 1 1h9a1 1 0 0 0 1-1v-1h3c7.553 0 13.712-6.016 13.975-13.507A8.997 8.997 0 0 0 62 37zm-52 6.929C6.612 43.442 4 40.52 4 37s2.612-6.442 6-6.929zM32 58v-2h7v2zm22-27.929c3.388.487 6 3.408 6 6.929s-2.612 6.442-6 6.929zM50 43V26c0-1.654-1.346-3-3-3H17c-1.654 0-3 1.346-3 3v17c0 1.654 1.346 3 3 3h2v7a1 1 0 0 0 1.752.659L27.454 46H47c1.654 0 3-1.346 3-3zm-23 1a1 1 0 0 0-.752.341L21 50.338V45a1 1 0 0 0-1-1h-3c-.551 0-1-.449-1-1V26c0-.551.449-1 1-1h30c.551 0 1 .449 1 1v17c0 .551-.449 1-1 1zm-4-12c-1.654 0-3 1.346-3 3s1.346 3 3 3 3-1.346 3-3-1.346-3-3-3zm0 4c-.551 0-1-.449-1-1s.449-1 1-1 1 .449 1 1-.449 1-1 1zm18-4c-1.654 0-3 1.346-3 3s1.346 3 3 3 3-1.346 3-3-1.346-3-3-3zm0 4c-.551 0-1-.449-1-1s.449-1 1-1 1 .449 1 1-.449 1-1 1zm-9-4c-1.654 0-3 1.346-3 3s1.346 3 3 3 3-1.346 3-3-1.346-3-3-3zm0 4c-.551 0-1-.449-1-1s.449-1 1-1 1 .449 1 1-.449 1-1 1z" fill="#598560" opacity="1" data-original="#000000"></path></g></svg>