<svg xmlns="http://www.w3.org/2000/svg" version="1.1" xmlns:xlink="http://www.w3.org/1999/xlink" width="512" height="512" x="0" y="0" viewBox="0 0 512 512" style="enable-background:new 0 0 512 512" xml:space="preserve" class=""><g><g fill-rule="evenodd"><path fill="#598560" d="M204.381 326.88c11.906-1.871 22.224-10.573 25.54-22.904l18.539-69.165c1.899-7.143 13.181-7.143 15.081 0l18.539 69.165c3.316 12.331 13.635 21.033 25.54 22.904v-37.247l.028-.227c.68-18.992 10.205-33.477 23.839-43.767l-4.309-16.129.397-79.143c0-6.066 2.721-11.282 7.653-14.769 30.019-21.146 51.194-53.972 56.92-91.871 3.883-25.654-39.572-28.516-43.285-5.584-7.257 44.731-46.063 78.888-92.863 78.888s-85.606-34.157-92.863-78.888c-3.713-22.932-47.168-20.069-43.285 5.584 5.726 37.899 26.901 70.724 56.92 91.871 4.932 3.487 7.653 8.702 7.653 14.769v79.143l-4.167 15.959c13.777 10.261 23.415 24.832 24.095 43.937l.028.227z" opacity="1" data-original="#ff695a" class=""></path><path fill="#598560" d="M256 94.553c23.272 0 42.264-18.992 42.264-42.293S279.272 9.996 256 9.996s-42.265 18.992-42.265 42.264S232.727 94.553 256 94.553z" opacity="1" data-original="#ff695a" class=""></path><g fill="#2E3760"><path d="M479.569 437.828c-.879-24.038-20.069-39.77-44.844-47.14-9.468 8.05-21.742 12.898-35.121 12.898s-25.654-4.847-35.122-12.898c-18.368 5.471-33.647 15.506-40.705 30.104 13.379 10.261 22.677 24.605 23.357 43.37v11.083h132.435zM192.362 289.86c-.878-24.066-20.041-39.77-44.844-47.14-9.468 8.022-21.713 12.898-35.122 12.898s-25.653-4.876-35.121-12.898c-24.775 7.37-43.965 23.074-44.844 47.14v37.389H62.79c8.447-18.992 27.496-32.23 49.606-32.23s41.159 13.238 49.606 32.23h30.359V289.86zm287.207 0c-.879-24.066-20.069-39.77-44.844-47.14-9.468 8.022-21.742 12.898-35.121 12.898s-25.654-4.876-35.122-12.898c-24.803 7.37-43.965 23.074-44.844 47.14v37.389h30.359c8.447-18.992 27.468-32.23 49.606-32.23s41.159 13.238 49.606 32.23h30.359V289.86zM187.77 419.885c-7.257-14.116-22.28-23.839-40.252-29.197-9.468 8.05-21.713 12.898-35.122 12.898s-25.653-4.847-35.121-12.898c-24.775 7.37-43.965 23.102-44.844 47.14v37.417h130.763v-11.083c.709-19.332 10.545-33.988 24.577-44.277zM335.143 464.616c-.879-24.066-20.069-39.77-44.844-47.168-9.468 8.051-21.742 12.926-35.121 12.926s-25.682-4.875-35.149-12.926c-24.775 7.398-43.965 23.102-44.844 47.168v37.389h159.959v-37.389z" fill="#101828" opacity="1" data-original="#2e3760" class=""></path><path d="M255.178 333.797c-23.357 0-42.293 18.936-42.293 42.293s18.936 42.265 42.293 42.265 42.265-18.936 42.265-42.265-18.936-42.293-42.265-42.293zM112.397 159.041c-23.357 0-42.265 18.935-42.265 42.293s18.907 42.264 42.265 42.264 42.293-18.907 42.293-42.264-18.936-42.293-42.293-42.293zm287.207 0c-23.357 0-42.293 18.935-42.293 42.293s18.936 42.264 42.293 42.264 42.265-18.907 42.265-42.264-18.907-42.293-42.265-42.293zm0 147.997c-23.357 0-42.293 18.907-42.293 42.265s18.936 42.293 42.293 42.293 42.265-18.936 42.265-42.293-18.907-42.265-42.265-42.265zm-287.207 0c-23.357 0-42.265 18.907-42.265 42.265s18.907 42.293 42.265 42.293 42.293-18.936 42.293-42.293-18.936-42.265-42.293-42.265z" fill="#101828" opacity="1" data-original="#2e3760" class=""></path></g></g></g></svg>